HIERARCHY
ROOT Hips
{
	OFFSET -14.64140 90.27770 -84.91600
	CHANNELS 6 Xposition Yposition Zposition Zrotation Xrotation Yrotation
	JOINT Spine
	{
		OFFSET 0.00000 13.20850 -1.60436
		CHANNELS 3 Zrotation Xrotation Yrotation
		JOINT Spine1
		{
			OFFSET 0.00000 8.61716 0.00000
			CHANNELS 3 Zrotation Xrotation Yrotation
			JOINT Spine2
			{
				OFFSET 0.00000 8.61717 0.00000
				CHANNELS 3 Zrotation Xrotation Yrotation
				JOINT Spine3
				{
					OFFSET 0.00000 8.61717 0.00000
					CHANNELS 3 Zrotation Xrotation Yrotation
					JOINT Neck
					{
						OFFSET 0.00000 11.07920 1.10792
						CHANNELS 3 Zrotation Xrotation Yrotation
						JOINT Neck1
						{
							OFFSET 0.00000 7.08032 0.00000
							CHANNELS 3 Zrotation Xrotation Yrotation
							JOINT Head
							{
								OFFSET 0.00000 7.08031 0.00000
								CHANNELS 3 Zrotation Xrotation Yrotation
								End site
								{
									OFFSET 0.00000 0.00000 0.00000
								}
							}
						}
					}
					JOINT RightShoulder
					{
						OFFSET -0.01000 7.91373 5.19711
						CHANNELS 3 Zrotation Xrotation Yrotation
						JOINT RightArm
						{
							OFFSET -18.41580 0.00000 0.00000
							CHANNELS 3 Zrotation Xrotation Yrotation
							JOINT RightForeArm
							{
								OFFSET -29.11090 0.00000 0.00000
								CHANNELS 3 Zrotation Xrotation Yrotation
								JOINT RightHand
								{
									OFFSET -24.65040 0.00000 0.00000
									CHANNELS 3 Zrotation Xrotation Yrotation
									JOINT RightHandThumb1
									{
										OFFSET -5.35114 -0.85590 3.97906
										CHANNELS 3 Zrotation Xrotation Yrotation
										JOINT RightHandThumb2
										{
											OFFSET -4.52789 0.00000 0.00000
											CHANNELS 3 Zrotation Xrotation Yrotation
											JOINT RightHandThumb3
											{
												OFFSET -2.46976 0.00000 0.00000
												CHANNELS 3 Zrotation Xrotation Yrotation
												End site
												{
													OFFSET 0.00000 0.00000 0.00000
												}
											}
										}
									}
									JOINT RightHandIndex1
									{
										OFFSET -14.26970 0.00000 2.88139
										CHANNELS 3 Zrotation Xrotation Yrotation
										JOINT RightHandIndex2
										{
											OFFSET -5.48836 0.00000 0.00000
											CHANNELS 3 Zrotation Xrotation Yrotation
											JOINT RightHandIndex3
											{
												OFFSET -3.01859 0.00000 0.00000
												CHANNELS 3 Zrotation Xrotation Yrotation
												End site
												{
													OFFSET 0.00000 0.00000 0.00000
												}
											}
										}
									}
									JOINT RightHandMiddle1
									{
										OFFSET -14.26970 0.00000 -0.09147
										CHANNELS 3 Zrotation Xrotation Yrotation
										JOINT RightHandMiddle2
										{
											OFFSET -6.17441 0.00000 0.00000
											CHANNELS 3 Zrotation Xrotation Yrotation
											JOINT RightHandMiddle3
											{
												OFFSET -3.56743 0.00000 0.00000
												CHANNELS 3 Zrotation Xrotation Yrotation
												End site
												{
													OFFSET 0.00000 0.00000 0.00000
												}
											}
										}
									}
									JOINT RightHandRing1
									{
										OFFSET -12.69180 0.00000 -3.06433
										CHANNELS 3 Zrotation Xrotation Yrotation
										JOINT RightHandRing2
										{
											OFFSET -5.62556 0.00000 0.00000
											CHANNELS 3 Zrotation Xrotation Yrotation
											JOINT RightHandRing3
											{
												OFFSET -3.56744 0.00000 0.00000
												CHANNELS 3 Zrotation Xrotation Yrotation
												End site
												{
													OFFSET 0.00000 0.00000 0.00000
												}
											}
										}
									}
									JOINT RightHandPinky1
									{
										OFFSET -11.11390 0.00000 -6.03719
										CHANNELS 3 Zrotation Xrotation Yrotation
										JOINT RightHandPinky2
										{
											OFFSET -4.52789 0.00000 0.00000
											CHANNELS 3 Zrotation Xrotation Yrotation
											JOINT RightHandPinky3
											{
												OFFSET -2.46976 0.00000 0.00000
												CHANNELS 3 Zrotation Xrotation Yrotation
												End site
												{
													OFFSET 0.00000 0.00000 0.00000
												}
											}
										}
									}
								}
							}
						}
					}
					JOINT LeftShoulder
					{
						OFFSET 0.01000 7.91373 5.19711
						CHANNELS 3 Zrotation Xrotation Yrotation
						JOINT LeftArm
						{
							OFFSET 18.41580 0.00000 0.00000
							CHANNELS 3 Zrotation Xrotation Yrotation
							JOINT LeftForeArm
							{
								OFFSET 29.11090 0.00000 0.00000
								CHANNELS 3 Zrotation Xrotation Yrotation
								JOINT LeftHand
								{
									OFFSET 24.65040 0.00000 0.00000
									CHANNELS 3 Zrotation Xrotation Yrotation
									JOINT LeftHandThumb1
									{
										OFFSET 5.35114 -0.85590 3.97906
										CHANNELS 3 Zrotation Xrotation Yrotation
										JOINT LeftHandThumb2
										{
											OFFSET 4.52789 0.00000 0.00000
											CHANNELS 3 Zrotation Xrotation Yrotation
											JOINT LeftHandThumb3
											{
												OFFSET 2.46977 0.00000 0.00000
												CHANNELS 3 Zrotation Xrotation Yrotation
												End site
												{
													OFFSET 0.00000 0.00000 0.00000
												}
											}
										}
									}
									JOINT LeftHandIndex1
									{
										OFFSET 14.26970 0.00000 2.88139
										CHANNELS 3 Zrotation Xrotation Yrotation
										JOINT LeftHandIndex2
										{
											OFFSET 5.48836 0.00000 0.00000
											CHANNELS 3 Zrotation Xrotation Yrotation
											JOINT LeftHandIndex3
											{
												OFFSET 3.01859 0.00000 0.00000
												CHANNELS 3 Zrotation Xrotation Yrotation
												End site
												{
													OFFSET 0.00000 0.00000 0.00000
												}
											}
										}
									}
									JOINT LeftHandMiddle1
									{
										OFFSET 14.26970 0.00000 -0.09147
										CHANNELS 3 Zrotation Xrotation Yrotation
										JOINT LeftHandMiddle2
										{
											OFFSET 6.17440 0.00000 0.00000
											CHANNELS 3 Zrotation Xrotation Yrotation
											JOINT LeftHandMiddle3
											{
												OFFSET 3.56744 0.00000 0.00000
												CHANNELS 3 Zrotation Xrotation Yrotation
												End site
												{
													OFFSET 0.00000 0.00000 0.00000
												}
											}
										}
									}
									JOINT LeftHandRing1
									{
										OFFSET 12.69180 0.00000 -3.06433
										CHANNELS 3 Zrotation Xrotation Yrotation
										JOINT LeftHandRing2
										{
											OFFSET 5.62556 0.00000 0.00000
											CHANNELS 3 Zrotation Xrotation Yrotation
											JOINT LeftHandRing3
											{
												OFFSET 3.56744 0.00000 0.00000
												CHANNELS 3 Zrotation Xrotation Yrotation
												End site
												{
													OFFSET 0.00000 0.00000 0.00000
												}
											}
										}
									}
									JOINT LeftHandPinky1
									{
										OFFSET 11.11390 0.00000 -6.03719
										CHANNELS 3 Zrotation Xrotation Yrotation
										JOINT LeftHandPinky2
										{
											OFFSET 4.52789 0.00000 0.00000
											CHANNELS 3 Zrotation Xrotation Yrotation
											JOINT LeftHandPinky3
											{
												OFFSET 2.46976 0.00000 0.00000
												CHANNELS 3 Zrotation Xrotation Yrotation
												End site
												{
													OFFSET 0.00000 0.00000 0.00000
												}
											}
										}
									}
								}
							}
						}
					}
					JOINT pCube4
					{
						OFFSET 0.00000 10.91090 1.10792
						CHANNELS 3 Zrotation Xrotation Yrotation
						End site
						{
							OFFSET 0.00000 0.00000 0.00000
						}
					}
				}
			}
		}
	}
	JOINT RightUpLeg
	{
		OFFSET -9.98441 0.00000 0.00000
		CHANNELS 3 Zrotation Xrotation Yrotation
		JOINT RightLeg
		{
			OFFSET 0.00000 -42.11790 0.00000
			CHANNELS 3 Zrotation Xrotation Yrotation
			JOINT RightFoot
			{
				OFFSET 0.00000 -45.00020 -0.00001
				CHANNELS 3 Zrotation Xrotation Yrotation
				JOINT RightForeFoot
				{
					OFFSET 0.00000 -3.74820 0.00000
					CHANNELS 3 Zrotation Xrotation Yrotation
					JOINT RightToeBase
					{
						OFFSET 0.00000 0.06325 14.43120
						CHANNELS 3 Zrotation Xrotation Yrotation
						End site
						{
							OFFSET 0.00000 0.00000 0.00000
						}
					}
				}
			}
		}
	}
	JOINT LeftUpLeg
	{
		OFFSET 9.98441 0.00000 0.00000
		CHANNELS 3 Zrotation Xrotation Yrotation
		JOINT LeftLeg
		{
			OFFSET 0.00000 -42.11800 0.00000
			CHANNELS 3 Zrotation Xrotation Yrotation
			JOINT LeftFoot
			{
				OFFSET 0.00000 -45.00070 0.00000
				CHANNELS 3 Zrotation Xrotation Yrotation
				JOINT LeftForeFoot
				{
					OFFSET 0.00000 -3.74824 0.00000
					CHANNELS 3 Zrotation Xrotation Yrotation
					JOINT LeftToeBase
					{
						OFFSET 0.00000 0.06325 14.43110
						CHANNELS 3 Zrotation Xrotation Yrotation
						End site
						{
							OFFSET 0.00000 0.00000 0.00000
						}
					}
				}
			}
		}
	}
}
MOTION
Frames: 4
Frame Time: 0.050000
0.010418670148552824 0.02908794127007988 0.0016596348526472376 -0.021911254640307097 -0.01848890878262507 0.040235755238555465 -3.1645777843066423 -0.6634872216686075 -0.661855491824664 -1.0415730366464642 3.6517285925892904 0.3461558935099662 -1.2266187135449602 -2.1643354515316617 -1.3441619840272354 -0.040528285141263075 0.18815338442861557 -0.8514725462490675 -0.6182659012321955 13.31251240999135 1.8221037648651068 -0.1441180117778012 0.8837474931332956 2.415452225994673 -0.6407996395365355 -13.110825171474001 0.2527127759829452 -4.854875785443198 1.678950558785564 -13.900822903806962 66.769866409505 11.255351582569382 15.265442950813279 27.11344516240963 -1.0085354824268038 83.79836365490745 16.435651284737652 -0.4532646329690648 -3.1291595632161027 4.560278621839353 -0.13829122526059984 -1.581058411512825 0.02551624357470501 0.02983741234249328 -56.25153863704251 -0.04522746939136621 0.020732984044363172 -56.236151062857395 -38.755179185096054 -0.004403683650338421 -0.013090284473521651 0.04282084304691071 0.013348823375101434 0.021723769681328078 -0.008887994107056383 -0.048891701901801206 -0.02039754465924747 -36.67708762018061 -0.025891830447083587 0.017184300294096216 0.026742108152920156 0.04852905117920529 0.012725762633433547 -0.013824434543689574 0.04885175469940683 0.0013605126944559347 -19.76073947976107 0.04939475443050656 0.01974126087874806 0.04034280830248961 0.018041115263309888 0.014272340067268343 -0.0012520259244754273 -0.014425156667472036 -0.0024343758007112906 24.03943826600529 -0.0036699866510425823 -0.003863401422971491 28.85406157206763 0.019896009509042963 -0.02686013164950693 28.837432466143934 0.016215964264455075 0.020430519681894018 7.3547903586937196 1.5369831434643095 12.750440997501371 -67.94877524322207 5.579344484420797 -17.92934117126688 -22.163226192565162 -15.184314944940965 -49.05647864225788 -3.778763794176692 -0.3495062362748822 0.0823400232545037 -0.4682367416468885 0.08461004737702833 -8.124933842523415 -0.044271064158724074 -0.030798617075575827 44.601313836858864 0.016723447651831452 -0.010916087993093605 44.52932331603184 12.452713546996815 -0.023107573808512444 -0.006499697974007008 -0.043117408574282874 -0.027402675337518015 0.001517307448247591 -0.035423515941216795 0.004017936404172486 -0.031486657153905244 11.092626915308518 0.025557666656764354 0.010286214322600924 0.013700233051857904 -0.024472590780550398 0.0033573316142341044 0.01862741675342146 0.009217144206768947 -0.0106450663082922 4.761685378173187 -0.019010799423991552 -0.001243074878139881 0.0027071368556368636 -0.019820451798163805 0.0012853880479214775 0.005409701642632429 0.030090259568927812 -0.045197118983424794 -5.5966736466549465 -0.003262113926734983 -0.044964339057169095 -6.730675611711777 -0.03901863642272607 -0.04818630406599446 -6.704925737600717 -0.03831907787805134 0.012830610723084725 -0.02773589740864197 -0.03266481322716822 -0.04009425001833088 8.029793595291125 3.451472054024792 -19.170472894214257 0.008796254405356491 10.413088569995596 0.007707188698888013 -5.602247074721743 -15.677367115179633 3.2290742507896315 -0.004929702056282876 -0.022730656649137638 -0.04677889685193167 0.021232083764836283 4.7465484746069135 -0.00318608745806336 12.47527913475495 -8.209656995668428 6.898148473563801 -0.03700945384897211 46.37861683361683 0.012714216830781552 -4.368182267775746 -14.736053405485933 -3.879160192909331 0.038622920791351066 -0.013370902986302452 0.043315746921064734 -0.0006666809881757607 -10.777115104484544 -0.019579236132037558 
0.019065605241820664 0.04679002958883015 -0.021657385300571784 0.027548581820626247 0.030060381066202714 -0.0061793920946135545 -2.945467331800904 -0.7434364907975486 -0.7129778876215729 -0.9867753817809761 3.5986070410171385 0.38962149504417287 -1.1712982424515501 -2.200904251082457 -1.897212691939071 0.10415133026454618 0.20173063546441544 -0.9291291438747714 -0.7127774701993285 13.107093145872597 1.9943429920730098 -0.14891155098253558 0.7094865778106106 3.134519349975326 -0.8022450366263345 -13.409518057396852 0.3281565695813352 -4.758958977815445 1.6625151637524762 -14.238694555199093 67.10632882739512 9.497079565893964 12.250286996022426 28.62999359729586 -1.4163664693308868 85.95902419172349 15.917344418189412 -0.42118368454033717 -3.058404345671598 4.5334740050847895 -0.1138553717217017 -1.5741098603759025 0.03339799120785153 -0.04573860289553122 -56.22087439393201 0.0181810241112412 -0.013703357935465559 -56.23537141167537 -38.7890049479134 0.047600644820507736 0.0388739594075295 -0.021171780933986153 5.040686647760628e-06 -0.010861396001555602 -0.005864401161721381 0.0031994729708251365 0.04483698956668516 -36.71175134011903 0.019135339532364806 0.020221325410189644 0.04779729017676926 -0.03355206334478784 0.040001334897353955 -0.019163087094403057 -0.013351873452061357 -0.0023527873244504646 -19.760578087944953 -0.021391704548311647 0.040534960271757015 0.013413617359303794 -0.011982182407538193 0.004494255399266355 -0.011816603705538031 -0.049839855613618735 0.01146601744000623 24.016669886819965 0.03403119231661407 -0.0187350956582464 28.886143360737893 -0.04635180862605526 0.029948604513687062 28.81575187599207 0.020301113452235803 0.015787054695192447 7.7642974803234175 1.5851407937801523 12.76553413813216 -68.48032500680362 2.3935742272947236 -18.752211863294498 -24.09279134364315 -15.586639158100228 -50.29411966815151 -1.6436047887643825 -0.3395532548595274 -0.3915198261603905 -0.4832412598163786 0.08206431266278104 -8.124192820872956 0.024165247558248556 0.006378610848979305 44.572093339321974 -0.02669535657804024 0.002636219267640352 44.534487824024886 12.433680198030533 -0.024450846520977683 0.025396053532337284 -0.030782491955635625 -0.005595885003203368 -0.03538190245777359 0.045605145554684326 -0.0340692203650622 -0.0055995081160633816 11.128820472915782 0.008590892320390528 0.00816354653097663 -0.008927144335656138 -0.006012718146530721 -0.022440317179470537 0.010121473354340972 0.040156849939306495 0.013008385704116525 4.793929915359418 0.014531342629131047 -0.03887725610999811 -0.036330399321576744 0.0018858230968814135 0.025945102152173754 -0.03262312536140954 0.039358980399380045 0.005902982735336688 -5.628998509316664 0.031816185589450666 -0.021983812184556847 -6.736387489660548 0.028676174753841592 -0.024395583989352782 -6.735759168384373 -0.003965078871767722 -0.04106578516474856 -0.017540295502411887 -0.019259743590420538 0.004029178102088197 8.05420488700828 3.449794701862682 -19.18519814555079 0.02232435823167334 10.364725245199786 0.055690459934015266 -5.600300564960377 -15.687950378958472 3.1638057107564994 0.02563645673568732 0.0013163236796265452 0.015787400689411795 0.008431815499368061 4.70650571021453 -0.0005583671878146523 12.458896173171375 -8.282350106175327 6.876456745129574 -0.003036705165276795 46.38246482095861 0.001313863900764847 -4.314671826878501 -14.78923971921074 -3.8284917817774615 -0.02650487172698134 0.003272989998029308 -0.003992359945119566 0.016076188417575223 -10.763934021347284 0.039660980850538555 
-0.004769060683140818 0.03513836993180382 -0.022541270331197155 -0.04321801192630542 -0.0019583039307817904 -0.007415332760060796 -2.7747383492071065 -0.669381421122194 -0.7913701633981844 -1.0665693646678605 3.6379996024234944 0.32670407354971576 -1.174005955435469 -2.1892240088809602 -2.209774681813261 0.2580519620902364 0.27448640680767583 -1.0345593014052672 -0.8631117503787469 12.899429230752006 2.080360309368472 -0.21816241730893082 0.5279869424225884 3.7372256923422986 -0.8870000712200997 -13.854678967727601 0.3599569786372157 -4.635104782876928 1.6684629059971985 -14.646048938451871 67.66910066353381 8.50243050438055 9.11644774650525 29.326334365803834 -2.2346485012828015 87.98861293451598 15.583758185652385 -0.44597611556944583 -2.952499711405591 4.56551616357308 -0.15541800195939726 -1.6302803167565225 0.04016328264843205 -0.007372358699859718 -56.203084490952556 0.023373890441181995 0.02900980192907684 -56.21448616579255 -38.73470247296891 -0.04493682420594715 -0.003942251840896689 3.767948575362041e-05 0.02784151404387241 0.01783031932998882 0.028337540756929794 -0.04032673597738657 -0.030349702805738593 -36.72243345700054 0.02349875281237102 -0.003564351322587205 0.03956110166022146 -0.04191930366978914 -0.043466022866504445 -0.00728797255674912 -0.031992185044727006 0.024474731890911632 -19.72130678926706 0.034094513813402456 0.02771599240247371 -0.024794739734381285 -0.0005786472922520732 -0.03630252747636541 -0.02355223632939817 -0.011122811140034628 0.024904733159019938 24.023381834385052 0.031131294640407838 0.04750600946843799 28.883457053949694 -0.02661148544735266 -0.04112132890017168 28.896404750289975 -0.009796572301414832 -0.02349015694440023 8.079246383809805 1.6855827680854893 12.84060099365495 -69.39514388236003 0.9034601655370701 -18.320151647609393 -25.52170230757261 -15.23451189764722 -51.785583899369385 -0.2785235455158083 -0.21790377136580852 -0.7582621852275838 -0.4835791384583955 0.031076372057295874 -8.135224043619129 -0.023526140234542532 -0.03055115147691238 44.561634981683554 0.02063977511381946 -0.026956904441350953 44.58866204107551 12.435388634135476 0.0038514543090441495 0.016677223549590975 0.0200573758861701 -0.04606470710373901 0.002656379688310815 -0.04782992944988077 -0.008119255541949122 0.019114939712169536 11.087350119585267 -0.0061766473129267856 -0.018517970398875077 0.049374299696900756 0.026188846547379793 -0.019450619615414694 -0.00555976014671287 0.02577827188050807 -0.006381266891207793 4.726090442812137 0.020843623159359174 -0.025741150345780697 -0.0043850753680083916 -0.0036169727504104226 -0.01849750069425589 -0.01763277844279626 0.013752719257386905 0.011821827917982265 -5.584541834652928 0.01560160022995368 -0.019994595902672288 -6.684065729920249 -5.005445255761988e-05 -0.01449589477331426 -6.741636680001736 0.024593660985229998 -0.033143940423640605 -0.018221996217639577 -0.023682252851811754 -0.00289889173336034 8.012267516357344 3.464133300286161 -19.267247072986383 -0.03298256474948328 10.390486491859749 0.027703569564939315 -5.601408793262616 -15.629811431625182 3.18536024466417 0.015547552435951713 0.014202973489695701 -0.02516726552996548 -0.03695071166528994 4.726840420293658 -0.03888311252182901 12.48464437128378 -8.221100852179129 6.86388798068253 -0.043519955568544315 46.384548456179296 -0.025772881769721714 -4.300244233911951 -14.779415599393314 -3.8126037609526744 0.04266614197417526 0.012398094335695995 0.009158045480076607 -0.008564181418356432 -10.712233858167775 -0.04300202225918806 
0.049740598663512596 0.01139902688366551 -0.018734697367396008 -0.03685037502087591 -0.04787817661580454 0.006321853160544688 -2.7005257634327564 -0.5747223455487941 -0.8661789564907729 -1.0107383801977277 3.607643626685975 0.31328971297348174 -1.1318996037318838 -2.141038277214159 -2.4285637749466438 0.2726845823277378 0.24953877964418544 -1.0459764116283876 -0.9184416398615513 12.663756859055765 2.1105580411480873 -0.27216682045592683 0.2922114767821559 4.105903750598854 -0.9810725780061862 -14.259750628702411 0.4295776600204913 -4.61840120643113 1.653910933959713 -15.026802357196619 68.44620213267447 8.201212326435598 6.206712033887989 28.548163482229555 -2.6669724530836056 89.26689637826955 15.51891722336832 -0.4692281049071814 -2.8713434004080796 4.568992482985202 -0.12447167270376011 -1.5789110619216034 0.03903880647337378 0.01812160938311007 -56.27167792688616 -0.013815481773472827 -0.04013675860715543 -56.24323094084469 -38.811329560012496 -0.017556720091753474 0.03148223305677793 -0.018806746593116562 -0.012280901206506432 0.033632114808614916 0.029404457636661295 0.03892783290668629 0.04399169007976089 -36.679352028637496 0.02084042700510915 -0.02488476817123901 -0.012960528779156794 -0.003765304700654653 -0.021308545356756196 -0.03488647584306758 0.042606258383362204 -0.015489736801539913 -19.77635979534946 -0.008507434540093003 -0.037315713669732506 0.02208733813126667 -0.042605308298972355 0.03736214593769994 -0.03435971113055763 0.009764245486561586 0.004406952890718388 24.091815225326997 -0.013452902097184987 0.005778224280237459 28.85457914516597 -0.044770051259762494 0.03796125800592501 28.81914286560942 -0.03902102055302688 -0.00347669908458299 8.154153001989389 1.7297586089279804 12.918253374309092 -70.4914946231299 1.2285463862797499 -16.763736413261984 -26.74316566528616 -14.245650575037919 -53.445857055049416 0.4182325790511947 -0.07015683563490387 -0.9829260386968365 -0.5230689016137886 0.0600720418270061 -8.159936432340977 -0.020493829470992323 0.002314167345467253 44.58001484933776 0.008407293934053747 0.005322016574509096 44.56080807254815 12.421080299491187 0.04118005981915487 0.0051011562060942536 -0.01818461793491297 -0.0026174783812545704 0.011067889829738154 -0.005342161630279955 0.021505893016938123 0.04090596690492106 11.141620056277798 0.03723214604367495 -0.02204002369822709 0.03381339412792269 -0.008686115156598864 0.04126583723808193 -0.005708209026126761 0.0018188756689579227 -0.0076542698344838535 4.762080554282344 0.04277280577998646 -0.029670287561164434 -0.03843882058319806 -0.04154327098444485 -0.023228108383213795 0.02788162951887137 -0.026730669301099103 -5.839902882279184e-05 -5.6470537961442515 -0.002140956121913526 0.028161502491460932 -6.721356878262629 0.023765776823133335 -0.005657675764519915 -6.698772440290491 0.012102333541612819 0.014579705398420696 -0.03494804692120617 -0.0014735756875356996 -0.01638764184934067 8.041136178005083 3.4716070711700966 -19.235595460841022 -0.002311209237781039 10.42360108544267 -0.023664616655861465 -5.658409898425184 -15.687722753106327 3.142605360694094 -0.038838860316423494 0.03509713700867919 4.5032497393016516e-05 0.015055898109149639 4.6516853838195 0.008004808535795428 12.483867925132875 -8.246459382837939 6.872200249521537 -0.006256805167593684 46.39373673623382 0.049716563824335 -4.281683155507041 -14.75813728947315 -3.8529026628269296 0.038226736535784164 0.00040379998288409615 -0.00631674667962785 -0.0153104482093666 -10.695762928708906 -0.017305490353532755 
